<svg width="512" height="512" viewBox="0 0 512 512" fill="none" xmlns="http://www.w3.org/2000/svg">
<path fill-rule="evenodd" clip-rule="evenodd" d="M253.08 270.066C270.244 272.173 286.556 277.502 302.016 286.051C313.29 301.044 323.641 316.717 333.071 333.068C346.616 342.337 359.792 352.054 372.596 362.219C378.515 366.403 384.318 370.792 390.005 375.384L401.297 397.952C401.994 399.126 401.837 400.067 400.827 400.773L401.027 401.51C401.467 403.238 401.713 405.03 401.768 406.885C401.098 418.002 400.628 429.13 400.356 440.268C394.615 446.782 389.439 453.677 384.829 460.954C379.576 464.042 373.929 466.394 367.89 468.008C364.965 470.236 361.828 472.117 358.479 473.65C350.153 473.936 341.841 474.406 333.541 475.06C332.035 475.053 330.7 474.776 329.537 474.232L329.306 474.12L327.349 473.409C317.585 469.807 308.199 465.499 299.193 460.485C284.946 455.215 270.83 449.729 256.845 444.028H253.08C229.669 455.231 205.515 465.888 180.618 476C167.369 475.139 154.195 473.728 141.094 471.769C134.715 467.024 128.755 461.852 123.214 456.253C119.312 450.988 115.391 445.66 111.45 440.268C110.708 428.198 109.925 416.128 109.098 404.064C109.101 401.534 109.414 399.183 110.039 397.011C115.32 388.751 120.809 380.601 126.507 372.563C127.275 371.319 128.374 370.692 129.802 370.682C137.922 365.052 146.078 359.41 154.269 353.756C159.574 350.161 164.908 346.555 170.267 342.942C172.708 340.98 174.59 338.629 175.914 335.889C186.438 319.231 197.418 302.931 208.851 286.992C222.492 278.786 237.236 273.144 253.08 270.066Z" fill="#3453B2"/>
<path d="M107.216 219.757C116.266 218.499 125.049 219.439 133.565 222.578C138.468 227.943 143.174 233.429 147.681 239.034C153.225 252.382 156.99 266.33 158.975 280.879C158.853 281.912 158.597 282.882 158.208 283.787L158.033 284.171L158.142 285.545C159.157 299.729 156.926 313.376 151.446 326.486C145.87 331.887 139.596 336.432 132.625 340.121C128.566 340.812 124.487 341.282 120.391 341.531C119.684 342.54 118.743 342.698 117.568 342.002C112.175 338.687 106.842 335.395 101.569 332.128C95.1757 319.425 89.2617 306.509 83.8283 293.381L82.7486 290.753L82.6065 289.418C81.2208 275.625 82.2096 261.965 85.5718 248.438C88.84 241.905 92.1337 235.323 95.4528 228.691C97.0667 225.666 99.4193 223.471 102.511 222.108L102.725 221.84C103.82 220.539 105.316 219.844 107.216 219.757Z" fill="#3453B2"/>
<path d="M395.181 209.883C400.621 210.851 405.954 212.262 411.178 214.115C413.784 216.541 415.876 219.31 417.457 222.422L417.766 223.049L418.835 224.624C421.308 228.321 423.618 232.184 425.765 236.213C427.583 244.608 428.995 253.072 430 261.603C429.475 270.531 428.848 279.308 428.117 287.932V288.872C425.051 296.336 422.071 303.859 419.178 311.441C416.765 316.575 414.098 321.59 411.178 326.486C403.869 331.607 395.713 334.428 386.711 334.949C380.077 332.578 373.489 329.914 366.948 326.956C362.508 320.743 358.431 314.317 354.715 307.679C353.289 300.528 352.034 293.318 350.951 286.051C351.086 274.251 352.027 262.653 353.774 251.259C356.722 241.29 360.957 231.887 366.478 223.049C367.782 220.335 369.82 218.454 372.596 217.407C379.51 213.339 387.039 210.83 395.181 209.883Z" fill="#3453B2"/>
<path d="M199.44 109.267C206.807 109.302 214.021 111.026 221.084 114.439C226.331 119.207 231.037 124.38 235.201 129.955C241.629 150.211 243.511 170.898 240.847 192.017C240.434 206.53 236.67 220.009 229.554 232.452C223.867 238.28 217.593 243.452 210.733 247.968C205.723 248.437 200.705 248.594 195.676 248.438C187.041 243.885 179.513 237.93 173.09 230.571C168.957 220.743 164.565 211.026 159.915 201.42V200.48C159.214 190.769 159.057 181.051 159.445 171.329C161.866 160.384 164.845 149.727 168.385 139.358C173.36 131.46 178.693 123.781 184.383 116.32C189.309 113.701 194.328 111.35 199.44 109.267Z" fill="#3453B2"/>
<path d="M282.253 115.849C289.926 109.764 298.709 107.413 308.603 108.797C313.802 110.764 318.813 112.954 323.638 115.364L324.601 115.849L325.738 117.194C331.398 123.941 336.666 131.016 341.54 138.418C344.469 147.291 346.978 156.381 349.069 165.687C350.157 173.044 350.314 180.567 349.539 188.256C346.242 200.49 342.321 212.401 337.775 223.988V225.87C331.717 231.451 325.757 237.25 319.895 243.265C316.589 244.367 313.296 245.465 310.014 246.557C309.007 246.531 308.224 246.217 307.662 245.617C295.907 244.139 286.496 238.811 279.43 229.63C274.761 220.661 270.997 211.258 268.137 201.42C267.51 194.061 267.197 186.539 267.197 178.852C267.039 167.377 267.666 156.093 269.078 145C272.198 134.692 276.59 124.975 282.253 115.849Z" fill="#3453B2"/>
<path fill-rule="evenodd" clip-rule="evenodd" d="M125.567 152.523C124.785 159.73 123.687 166.94 122.273 174.15V176.031C122.585 184.83 122.271 193.607 121.332 202.361C114.774 204.39 108.186 206.271 101.569 208.003C101.176 200.075 102.431 192.552 105.334 185.435C105.612 183.646 106.24 182.078 107.216 180.733C107.77 174.647 110.28 169.632 114.745 165.687C118.152 161.18 121.76 156.792 125.567 152.523Z" fill="#3453B2"/>
<path fill-rule="evenodd" clip-rule="evenodd" d="M384.358 146.881C389.099 151.459 393.647 156.161 398.004 160.986C400.915 164.603 403.11 168.678 404.592 173.21C405.38 173.532 405.694 174.158 405.532 175.091C408.426 183.219 410.308 191.682 411.178 200.48C403.131 198.321 395.288 195.813 387.652 192.957V170.39C386.544 162.504 385.447 154.668 384.358 146.881Z" fill="#3453B2"/>
<path d="M223.437 39.6814C222.755 47.5378 221.658 55.374 220.144 63.19C220.129 71.1546 219.886 79.1101 219.417 87.0554L219.202 90.4602C211.255 93.1975 203.256 96.0185 195.205 98.9232C195.94 89.6731 198.293 80.8968 202.263 72.5936L202.238 72.4227C202.142 71.5841 202.465 71.0148 203.204 70.7132C208.523 59.4602 215.268 49.1159 223.437 39.6814Z" fill="#3453B2"/>
<path d="M282.253 36.3906C283.036 35.7436 283.663 35.9005 284.136 36.8604C287.608 41.2659 291.059 45.655 294.487 50.0257C298.755 56.7898 302.606 63.8243 306.039 71.1289L306.721 72.5936L307.304 74.1022C310.182 81.6615 312.497 89.4649 314.249 97.5127C305.975 96.8591 297.82 95.2928 289.782 92.8113C289.259 92.4512 288.945 91.9809 288.841 91.4008C289.138 80.3509 288.511 69.3806 286.959 58.4886C286.259 50.9132 284.689 43.5466 282.253 36.3906Z" fill="#3453B2"/>
</svg>
